<?xml version="1.0" standalone="no"?><!DOCTYPE svg PUBLIC "-//W3C//DTD SVG 1.1//EN" "http://www.w3.org/Graphics/SVG/1.1/DTD/svg11.dtd"><svg t="1495179507396" class="icon" style="" viewBox="0 0 1024 1024" version="1.1" xmlns="http://www.w3.org/2000/svg" p-id="8597" xmlns:xlink="http://www.w3.org/1999/xlink" width="200" height="200"><defs><style type="text/css"></style></defs><path d="M252.427771 604.891029C243.231936 428.466402 301.097841 319.846588 358.963746 211.226774 387.978597 156.798904 409.03776 117.564596 424.200358 65.661123 449.681949-21.489528 574.539397-26.396765 499.966554 78.235919 464.025581 128.653066 451.787865 154.132953 461.521879 264.427835 463.908584 291.464826 467.839628 318.666964 473.12782 345.798325 483.236218 397.819761 498.258421 449.581679 516.743689 499.479791 530.05776 535.411151 542.235446 564.099995 558.591396 597.577736 598.954796 581.01581 644.221834 579.245994 683.579073 583.822936 784.171685 595.548403 864.874405 760.807019 826.476527 876.103508 788.055251 991.399996 659.127043 1037.860367 544.47159 1001.433566 429.816136 965.006765 365.809064 824.424706 406.393664 726.67545 427.429443 676.010138 461.521885 635.94152 516.743693 613.62098 475.935711 530.197942 445.680707 448.048169 427.429431 354.173659 418.046404 305.879836 412.688016 257.255718 412.383828 209.410152 408.382586 217.030526 404.334547 224.603715 400.286508 232.224089L396.65965 239.018725C349.908306 326.806372 304.186518 415.584905 298.664338 543.668522 297.798571 563.722137 297.915568 584.719451 299.179116 606.872796 346.632434 611.803626 381.988429 625.140264 418.373985 648.709161 397.806202 667.583151 390.482296 688.620768 376.208862 709.736045 373.003189 714.454542 370.125104 719.385373 367.574605 724.48135 330.206286 799.245944 367.410812 894.653966 418.373991 954.555291 412.313631 960.028749 405.949082 965.14832 399.23355 969.866817 298.453745 1040.691467 159.603652 1020.637852 89.195844 925.064683 18.741238 829.491513 47.990078 658.49316 144.136865 623.765019 176.638177 611.992368 214.170288 605.598803 252.427771 604.891029ZM502.189467 883.754236C518.334825 872.406249 534.480185 861.058262 550.648945 849.733869 516.252308 814.769801 513.467818 788.888843 500.949316 741.585904 485.154943 743.520487 469.33717 745.478664 453.542795 747.389655 430.798897 793.937634 462.551438 853.390704 502.189467 883.754236L502.189467 883.754236ZM166.319186 795.683478C166.319186 747.224508 182.698536 726.651858 207.220764 684.09101 194.468269 674.795569 181.692376 665.476538 168.916483 656.204689 119.474243 674.370905 100.193408 738.731211 107.236529 787.426108 126.915148 790.186428 146.617167 792.923158 166.319186 795.683478Z" p-id="8598" fill="#ffffff"></path><path d="M565.856691 406.688646C662.003479 514.388355 958.446323 471.30847 958.446323 471.30847 958.446323 471.30847 900.210277 231.436182 789.766657 153.911266 679.323036 76.362758 609.870346 97.155204 558.57958 98.169681 586.284082 211.012552 690.48015 315.079016 776.775928 382.883826 776.775928 382.883826 600.46392 286.838808 524.908317 202.991106 514.144742 191.053307 504.902109 180.200762 496.969823 170.339102 494.700113 231.891903 502.094221 335.274185 565.856691 406.688646Z" p-id="8599" fill="#ffffff"></path></svg>