<?xml version="1.0" standalone="no"?><!DOCTYPE svg PUBLIC "-//W3C//DTD SVG 1.1//EN" "http://www.w3.org/Graphics/SVG/1.1/DTD/svg11.dtd"><svg t="1495179473628" class="icon" style="" viewBox="0 0 1024 1024" version="1.1" xmlns="http://www.w3.org/2000/svg" p-id="7762" xmlns:xlink="http://www.w3.org/1999/xlink" width="200" height="200"><defs><style type="text/css"></style></defs><path d="M713.89915 677.928612h-57.436827c-15.664589 0-28.718414 13.053824-28.718414 28.718413v72.231162c0 23.786969 19.145609 43.512748 43.512748 43.512748h28.718414c23.786969 0 43.512748-19.145609 43.512748-43.512748v-72.231162c-0.870255-15.664589-13.924079-28.718414-29.588669-28.718413m-29.008498-187.394901c-79.483286 0-144.462323 59.757507-144.462323 144.462323 0 62.078187 64.398867 14.794334 144.462323 14.794334s144.462323 47.864023 144.462323-14.794334c-0.290085-85.865156-64.688952-144.462323-144.462323-144.462323m-187.975071 143.882153c0-33.359773 9.572805-64.398867 24.947309-91.376771-11.893484-6.091785-24.947309-9.572805-38.871389-9.572804h-57.436827c-47.864023 0-86.445326 38.871388-86.445326 86.445326v100.949575c0 55.986402 45.253258 100.949575 100.949576 100.949575h28.718413c55.986402 0 100.949575-45.253258 100.949575-100.949575V710.708215c-43.802833-1.74051-72.811331-15.954674-72.811331-76.292351m54.245892-130.828329c5.22153-5.511615 11.313314-10.152975 17.405099-14.794334 2.32068-2.32068 5.22153-4.64136 7.832295-6.671955 4.06119-2.90085 7.252125-5.22153 11.313314-7.252124 2.32068-1.16034 5.22153-2.90085 7.252125-4.06119 8.992635-5.22153 18.565439-9.572805 28.718414-13.053824 7.832295-2.90085 15.374504-5.22153 22.626628-6.671955h0.58017c8.992635-2.32068 17.405099-4.06119 23.206799-4.06119 27.558074 0 28.718414-17.405099 28.718414-28.718413 0-116.324079-115.163739-216.693484-237.579604-216.693485-147.943343 0-266.878187 144.462323-266.878186 266.878187 0 24.947309 3.48102 49.024363 10.152974 71.650992 5.22153 13.053824 17.985269 22.046459 34.520113 22.046459 24.947309 0 36.260623-8.412465 41.772238-14.794335 41.192068-41.192068 100.949575-57.436827 173.180737-57.436827 42.062323 0.58017 68.460057 4.06119 97.17847 13.633994z" p-id="7763" fill="#ffffff"></path></svg>