<?xml version="1.0" standalone="no"?><!DOCTYPE svg PUBLIC "-//W3C//DTD SVG 1.1//EN" "http://www.w3.org/Graphics/SVG/1.1/DTD/svg11.dtd"><svg t="1495179023458" class="icon" style="" viewBox="0 0 1025 1024" version="1.1" xmlns="http://www.w3.org/2000/svg" p-id="5683" xmlns:xlink="http://www.w3.org/1999/xlink" width="200.1953125" height="200"><defs><style type="text/css"></style></defs><path d="M45.504 607.552c36.8 3.52 73.536 7.04 110.4 10.56 21.12-71.552 17.728-130.432 67.904-164.48 129.024-87.872 344.448-59.584 449.984 18.368-120.832 57.152-175.296 146.816-189.888 225.152 8.64 9.344 17.344 18.752 25.984 28.032 163.136-286.144 305.152-20.16 391.36-240.768 8.64-22.208 19.52-41.472 34.112-35.584 26.496 10.56 23.744 49.6 36.992 54.272 13.376 4.608 61.632 22.528 49.728 38.4-5.248 6.912-25.6 18.432-48.128 29.76-205.632 104.704 38.848 213.44-149.12 348.928-211.008 0-422.208 0-633.28 0C100.48 863.232 34.816 787.392 0 688.32 15.168 661.312 30.336 634.432 45.504 607.552L45.504 607.552 45.504 607.552zM372.992 366.016c24.832-56.064 42.88-95.296-13.696-149.504C378.048 283.392 312 300.992 372.992 366.016L372.992 366.016 372.992 366.016zM662.976 366.016c24.896-56.064 42.88-95.296-13.632-149.504C668.032 283.392 601.984 300.992 662.976 366.016L662.976 366.016 662.976 366.016zM526.016 366.016c43.52-98.304 75.136-167.04-24-262.08C534.848 221.184 419.072 252.032 526.016 366.016L526.016 366.016z" p-id="5684" fill="#ffffff"></path></svg>