<?xml version="1.0" standalone="no"?><!DOCTYPE svg PUBLIC "-//W3C//DTD SVG 1.1//EN" "http://www.w3.org/Graphics/SVG/1.1/DTD/svg11.dtd"><svg t="1495178982703" class="icon" style="" viewBox="0 0 1024 1024" version="1.1" xmlns="http://www.w3.org/2000/svg" p-id="3853" xmlns:xlink="http://www.w3.org/1999/xlink" width="200" height="200"><defs><style type="text/css"></style></defs><path d="M869.9136 211.6608C850.6624 220.8768 847.1296 210.4832 825.6 218.9824 804.0704 227.4816 781.2864 240.9472 781.2864 240.9472 781.2864 240.9472 844.4672 292.224 869.9136 380.032 895.36 467.84 888.064 502.1952 880.9984 537.3952 873.9328 572.6208 844.8 613.888 844.8 613.888 844.8 613.888 716.3904 581.4528 567.0912 434.9184 417.8176 288.4096 409.6 153.088 409.6 153.088 409.6 153.088 463.7952 128.6656 522.7776 127.488 649.984 124.928 751.744 218.9824 751.744 218.9824 751.744 218.9824 823.8336 161.2288 851.456 164.096 879.0784 166.9376 893.9776 172.8768 895.7696 182.4 897.5616 191.8976 889.1648 202.4704 869.9136 211.6608ZM768 639.488C768 639.488 720.1536 704.8704 563.4048 800.9216 411.9296 893.7728 433.4848 877.2608 341.8368 892.416 257.3056 906.4192 219.9808 877.7984 219.9808 877.7984 219.9808 877.7984 219.0336 888.9856 201.5232 892.416 183.9872 895.872 148.6592 871.7312 153.4976 855.8336 158.336 839.936 168.2688 833.8688 168.2688 833.8688 168.2688 833.8688 88.3456 799.7696 153.4976 581.3248 218.6496 362.88 358.4 229.888 358.4 229.888 358.4 229.888 376.6272 324.3776 512 460.288 647.3728 596.1984 768 639.488 768 639.488ZM304.896 475.1872C274.8416 455.4496 217.9328 564.1216 194.1248 647.2192 170.3168 730.2912 172.2368 833.7408 223.6672 822.8864 255.3856 816.2048 229.5296 773.1456 249.5232 665.4976 260.4288 606.6944 300.1856 544.512 308.608 530.0992 317.0048 515.6608 325.6064 488.7552 304.896 475.1872Z" p-id="3854" fill="#ffffff"></path></svg>