<?xml version="1.0" standalone="no"?><!DOCTYPE svg PUBLIC "-//W3C//DTD SVG 1.1//EN" "http://www.w3.org/Graphics/SVG/1.1/DTD/svg11.dtd"><svg t="1495179127032" class="icon" style="" viewBox="0 0 1024 1024" version="1.1" xmlns="http://www.w3.org/2000/svg" p-id="7236" xmlns:xlink="http://www.w3.org/1999/xlink" width="200" height="200"><defs><style type="text/css"></style></defs><path d="M717.175 888.525c1.77 7.737 3.432 14.939 5.042 21.504C720.802 902.528 719.063 895.435 717.175 888.525L717.175 888.525 717.175 888.525zM717.175 888.525" p-id="7237" fill="#ffffff"></path><path d="M1008.144 240.967c-42.39-102.56-67.752-126.996-67.752-126.996s23.33 59.331-14.22 102.837c-37.549 43.512-200.967 58.857-247.688 179.175-14.615 37.631-21.673 68.333-24.801 92.528-26.433-139.589-91.2-291.314-276.63-319.356C167.839 137.517 149.242 217.266 1 209.631c0 0 124.058 32.728 176.618 172.374 52.571 139.646 159.812 362.204 380.589 381.84 88.618 7.982 138.308 49.067 158.968 124.68-32.873-144.332-101.669-484.98-522.729-652.708 69.125 8.693 392.74 36.983 476.28 395.266-3.076 42.226 3.576 103.635 36.681 195.627 0 0-44.566-150.598-17.713-193.328 26.859-42.719 94.771-46.975 167.848-75.72C930.612 528.92 1068.41 386.728 1008.144 240.967L1008.144 240.967 1008.144 240.967zM819.523 430.471c-43.27 38.347-121.63 104.787-135.859 141.662-5.145 13.324-10.428 30.938-12.583 54.907-2.238-26.674-4.97-56.636-9.26-88.253 10.268-24.739 34.236-73.107 77.295-111.428 44.607-39.715 138.487-100.167 202.14-159.046-8.879 36.5-78.452 123.807-121.732 162.153l0 0L819.524 430.471zM819.523 430.471" p-id="7238" fill="#ffffff"></path></svg>