<?xml version="1.0" standalone="no"?><!DOCTYPE svg PUBLIC "-//W3C//DTD SVG 1.1//EN" "http://www.w3.org/Graphics/SVG/1.1/DTD/svg11.dtd"><svg t="1495178948168" class="icon" style="" viewBox="0 0 1024 1024" version="1.1" xmlns="http://www.w3.org/2000/svg" p-id="3038" xmlns:xlink="http://www.w3.org/1999/xlink" width="200" height="200"><defs><style type="text/css"></style></defs><path d="M352.545761 838.966036c-35.035301 6.517754-70.874371 20.768851-104.863868 17.231364-29.887566-3.111219-66.711027-19.096289-84.501417-41.871853-33.837775-43.312316-30.68682-96.046792 12.278701-133.773365 34.528655-30.317447 74.457916-57.937301 116.688305-75.402571 140.12585-57.955363 280.151455-40.383526 420.140935 13.190844-137.50773 47.8649-255.291509 125.532474-361.349291 222.075978l1.605732-1.4513h0.000903v0.000903z m448.793045-571.081543c97.510736 18.67002 151.06885 66.466284 160.321226 139.266088 8.57143 67.436226-11.841596 111.39246-62.96131 135.572363-13.891658-102.57719-86.42956-140.726419-157.864762-112.040894-24.57095-29.865891-47.427794-61.416989-74.410052-88.917632-15.945334-16.251488-37.070011-33.538845-58.218168-37.369843-54.322146-9.843913-84.253062-32.534585-94.450995-91.803975-8.883003-51.629068 12.768188-96.186775 64.129032-81.151778 52.1899 15.276128 103.761169 21.362195 156.23555 30.341831 48.110546 8.23186 70.727163 52.90968 67.219479 106.10384z m-326.314893 41.723744c59.779648-11.314179 120.179733 0.022578 179.42203 52.155582-76.756335 6.147479-114.081022 60.989817-161.911604 101.540418-23.208155 19.67699-51.089008 50.725054-80.048176 2.678629-3.025423-5.021299-18.218465-4.967112-27.272156-3.711788-46.505718 6.450021-74.785746-19.403347-74.308902-65.495439 0.145401-13.966617-5.455696-31.289195-14.637629-41.470872-34.991048-38.801275-42.240323-84.577279-16.764455-129.428497 27.124046-47.753817 81.83182-71.816316 136.475474-60.02981 47.198404 10.181677 89.967047 52.520439 88.810161 96.483899-0.431687 16.274066-19.639059 32.049615-29.764743 47.277878z m90.428537 390.346389l187.979913-76.336388 3.911375-10.988156-143.750036-52.966576c37.77534-29.304156 79.714024-61.038585 120.72431-93.935318 27.24145-21.854391 54.729449-36.713282 89.747591-17.741622 34.490725 18.683567 58.331057 47.463919 53.796535 86.301318-5.171215 44.315673 11.609496 77.436377 31.792228 113.919366 14.192394 25.652877 22.636485 59.347961 20.089711 88.259263-3.797583 43.108213-31.715463 51.21454-70.016414 29.729522-13.11137-7.354036-29.370986-10.99538-44.559513-12.415071-60.418148-5.638124-116.571804-43.464942-182.14762-18.32142-17.215108 6.600841-44.37889-12.740191-66.973833-20.169185l-0.594247-15.335733z m10.948419-292.086974c-10.3334 65.883777-43.419786 111.983998-105.432829 130.78226-49.329747 14.951911-101.240586 22.134355-149.487502 39.686324-45.095058 16.404114-90.324679 37.126907-128.996809 64.972538-29.697913 21.384773-49.296332 56.797574-78.373807 92.010788-56.266545 1.130695-66.682128-36.698832-38.756119-88.316159 19.620997-36.266241 63.038074-61.58858 99.551767-86.2959 45.786841-30.981234 95.381199-56.334278 152.76399-89.578709 25.429809 8.862231 63.973697 27.888981 104.476434 34.070778 20.51598 3.129281 47.130671-13.401269 66.418419-27.357952 28.107534-20.337164 52.092364-46.368445 77.836456-69.973968z m16.593767 403.08929c-57.218424 55.232482-104.034812-29.944462-161.186406-8.975121l-4.737722-10.389392c33.616513-22.35923 66.551177-45.897924 101.42482-66.084268 7.013563-4.060389 21.41277 4.543553 32.376541 7.426284 28.09489 7.387451 59.703787 26.922652 83.579341 19.944311 64.960798-18.987012 120.4895 17.431855 181.17226 19.869352 34.664122 1.392598 42.424558 25.899427 17.367733 49.941153-15.68885 15.053963-39.561695 29.061219-60.312483 29.898403-53.376589 2.154824-107.211958-1.760164-160.480173-7.087617-9.678644-0.965426-17.541131-20.12132-29.203911-34.543105z m-69.967647-263.551366c29.471232-47.770074 54.244479-95.571756 87.142115-136.907161 10.829208-13.607178 47.302262-20.520496 63.910479-12.858499 31.325319 14.453394 33.50543 47.720402 14.73968 75.913732-39.266377 58.989425-98.51048 75.956178-165.792274 73.851928zM350.940933 840.418239l80.515987-32.763072c-82.794537 93.442219-241.311346 118.78262-270.776256 44.632664 67.559952 20.674928 132.283231 29.922788 191.811814-13.290186 0.053284-0.031609-1.551545 1.420594-1.551545 1.420594zM74.785746 745.444343c52.51502 21.94109 71.877727 59.25765 62.383317 112.590889l-62.383317-112.590889z" p-id="3039" fill="#ffffff"></path></svg>